<svg id="exEzyuDm5RK1" xmlns="http://www.w3.org/2000/svg" xmlns:xlink="http://www.w3.org/1999/xlink" viewBox="0 0 900 680" shape-rendering="geometricPrecision" text-rendering="geometricPrecision"><g><g clip-path="url(#exEzyuDm5RK12)"><g><path d="M622.84,606.57h-339.78c-10.631192.015963-20.831404-4.200879-28.347862-11.719214s-11.730755-17.719599-11.712138-28.350786v-439.86c-.01866-10.639871,4.202493-20.848748,11.729781-28.36853s17.740372-11.730746,28.380219-11.70147h339.73c10.64281-.023905,20.857908,4.187189,28.391967,11.704364s11.76806,17.722799,11.768033,28.365636v439.86c-.065998,22.118262-17.991684,40.026071-40.11,40.07h-.05Z" fill="#ededed"/><path d="M662.11,62.76c-12.5,42.2-29.9,73.5-36.9,85.1-1.778455,2.995122-1.414469,6.796754.9,9.4l79.3,88.2c0,0,22-176-43.3-182.7Z" fill="#cce7c9"/><path d="M204.71,399.76L300,294.66c.868444-.951097,2.108537-1.476095,3.3959-1.437666s2.493934.636461,3.3041,1.637666c11.6,14.6,51.1,64.5,60.5,78.9c5.9,9,12.2,10,22.4.8c12.5-11.2,41.3-40.5,57.4-28.4c14.7,11,19.7,34.9,20,49.7.3,17.7-9.5,50.3-60.6,101.4-5.7,5.7-10.1,11.9-2.7,21c7.9,9.7,50.2,56.7,60.3,68.7s7.1,42,7.1,42h-285l18.61-229.2Z" fill="#cce7c9"/><path d="M363.11,423l-41-50.6c-4.75666-5.913371-11.677395-9.682888-19.225368-10.471482s-15.098406,1.46901-20.974632,6.271482L127.31,493.4c-5.906395,4.761372-9.670644,11.681166-10.45898,19.226674s1.464307,15.093932,6.25898,20.973326l41,50.6c4.761372,5.906395,11.681166,9.670644,19.226674,10.45898s15.093932-1.464307,20.973326-6.25898l154.6-125.2c12.219091-9.963659,14.095736-27.925837,4.2-40.2Z" fill="none" stroke="#b7ddb3" stroke-width="12" stroke-miterlimit="10"/><path d="M278.61,527.76l-50.6,41c-5.906395,4.761372-9.670644,11.681166-10.45898,19.226674s1.464307,15.093932,6.25898,20.973326L349,763.56c4.761372,5.906395,11.681166,9.670644,19.226674,10.45898s15.093932-1.464307,20.973326-6.25898l50.6-41c5.913371-4.75666,9.682888-11.677395,10.471482-19.225368s-1.46901-15.098406-6.271482-20.974632L318.81,532c-9.960843-12.2243-27.927515-14.101415-40.2-4.2v-.04Z" fill="none" stroke="#b7ddb3" stroke-width="4" stroke-miterlimit="10" stroke-dasharray="14,6"/><path style="isolation:isolate" d="M689,548.86l-29.4,4.2-4.2-61.9l35.8-5-2.2-15.8-34.7,4.8-6.1-89.2c-.829772-12.363249-2.838901-24.618936-6-36.6-.1-.3-.1-.5-.2-.8-5.720156-21.437813-15.017387-41.756489-27.5-60.1l-56.1-82.4c-1.11933-1.641762-.863807-3.856292.6-5.2l12.9-11.6c7.731844-6.931409,14.981997-14.382027,21.7-22.3l96.5,110.1l12-10.5-98.4-112.4c8.010568-10.904918,15.006406-22.520017,20.9-34.7l41.1-84.2-14.4-7-41.1,84.2c-4.97447,10.265672-10.794551,20.099602-17.4,29.4L519,57.56l-12,10.5l75.9,86.7c-6.685837,8.040547-13.937634,15.593111-21.7,22.6l-11.5,10.3c-1.513203,1.338336-3.786797,1.338336-5.3,0L385.71,49.76l-10.5,12.1l46.7,40.5c1.624231,1.385223,2.616069,3.370826,2.748055,5.501448s-.607206,4.223457-2.048055,5.798552L362.91,181l-53.5-66.7c-2.511215-3.176069-2.253581-7.727599.6-10.6l27.1-27.3-11.3-11.3-59.2,59.5c-12.213486,12.35784-30.768643,15.93378-46.7,9l-11.6-5-6.3,14.7l11.6,5c7.332071,3.143185,15.222639,4.775717,23.2,4.8c3.215744-.02091,6.42515-.288361,9.6-.8c2.89344-.484803,5.817838.669565,7.6,3l57.6,73.9c2.362884,3.03073,2.236924,7.313382-.3,10.2L203.11,361.5l12,10.6l82.7-93.3c1.549186-1.766818,3.796808-2.763197,6.146306-2.724681s4.563253,1.108033,6.053694,2.924681l61.45,74.79c1.874298,2.267194,4.592993,3.670867,7.526735,3.886084s5.828174-.776683,8.013265-2.746084l50.26-45.06c1.310631-1.174445,3.047042-1.757377,4.800853-1.611699s3.370248,1.00711,4.469147,2.381699l12.67,15.82c43,53.5,45.4,98.1,7.3,136.3l-50.4,47l59.1,62c7.313388,7.619069,11.08741,17.961342,10.4,28.5l-2.8,46l16,1l2.8-46c.312732-5.031601-.091309-10.082112-1.2-15c5.272956,1.487156,10.721482,2.260712,16.2,2.3c2.412528.001022,4.820917-.199677,7.2-.6c4.375685-.626416,7.46995-4.604757,7-9-.268956-2.171298-1.415456-4.1377-3.172548-5.441348s-3.971439-1.830779-6.127452-1.458652c-10.2,1.8-25.1-2.7-32.7-9.7l-2.1-2-47.8-50.1l38.7-36.1.2-.2c1.9-1.9,3.8-3.9,5.5-5.9l58.6,105.8c4.178392,7.490341,9.212074,14.47038,15,20.8l41.9,45.3c2.982812,3.257465,8.041137,3.481284,11.3.5c3.160096-3.190137,3.248245-8.302822.2-11.6l-38.5-41.7c-.87471-.971496-1.146607-2.344248-.708252-3.575818s1.51644-2.123821,2.808252-2.324182l70.9-10.2l3,44l16-1.1-3.1-45.2l30.5-4.4-2.2-15.5Zm-58.3-175.5c.7,4.5,1.1,9.1,1.5,13.6l6.2,90.3-44.1,6.1c-1.419566.156956-2.723007-.798901-3-2.2l-14.2-86.6c-.570086-3.467331,1.16897-6.904999,4.3-8.5l37.8-18.9c2.332575-1.084993,5.040492-1.004977,7.304932.215852s3.81954,3.439135,4.195068,5.984148Zm-29.5-76c8.981336,13.158008,16.177441,27.449337,21.4,42.5c1.356061,3.808628-.366159,8.028067-4,9.8l-13.6,6.8c-3.719673,1.852952-8.238694.549389-10.4-3l-68.8-114.2c-1.960132-3.296048-1.333427-7.515866,1.5-10.1L541,217c.856002-.78105,2.008649-1.152502,3.159626-1.018221s2.187159.761096,2.840374,1.718221l54.2,79.66ZM271.3,151.76c-2.67906-3.467177-2.102013-8.438661,1.3-11.2c1.86327-1.454226,3.633417-3.023979,5.3-4.7l9.4-9.4c1.600843-1.614675,3.813135-2.47188,6.083986-2.357383s4.385702,1.189877,5.816014,2.957383l53,66-19.5,22c-1.578553,1.77894-3.866779,2.763293-6.243853,2.68599s-4.596511-1.208247-6.056147-3.08599l-49.1-62.9ZM383.08,336.88c-.72118.648549-1.676313.973785-2.643417.900119s-1.861956-.539819-2.476583-1.290119l-58.85-71.63c-2.503756-3.042818-2.418893-7.455694.2-10.4l43.1-48.7L428.51,288c2.134161,2.646694,1.822119,6.501078-.71,8.77l-44.72,40.11Zm-10-143.22l61.7-69.6c1.388727-1.583989,3.351919-2.548604,5.454375-2.680007s4.170477.58126,5.745625,1.980007l24.6,21.3c3.187168,2.772961,3.668867,7.546155,1.1,10.9l-30.8,40.1c-2.666589,3.414592-2.229336,8.311829,1,11.2c1.451965,1.232023,3.295781,1.905725,5.2,1.9c2.491379-.016543,4.842532-1.155383,6.4-3.1l29.8-38.8c1.338427-1.756796,3.343576-2.882125,5.540409-3.109383s4.389881.463773,6.059591,1.909383l36.9,32c.861002.759332,1.354249,1.851998,1.354249,3s-.493247,2.240668-1.354249,3l-82.57,73.9c-1.308885,1.172307-3.042187,1.75491-4.793423,1.61118s-3.36635-1.001149-4.466577-2.37118l-66.87-83.14Zm98.6,122.8L458,299.39c-2.127711-2.65409-1.811673-6.508.72-8.78L503,251c1.771853-1.596995,4.16392-2.320019,6.523716-1.971853s4.441133,1.731201,5.676284,3.771853l64.4,106.8c1.155014,1.915371,1.455448,4.226803.82845,6.373795s-2.124164,3.933461-4.12845,4.926205l-12.6,6.3h-.1l-43.5,21.7c-2.311469,1.15279-5.037313,1.118619-7.319158-.091751s-3.838899-3.447998-4.180842-6.008249c-.2-1.5-.4-3-.7-4.5-3.8-22.9-15.7-46.4-36.2-71.8l-.02-.04ZM515,492.76L494.61,456c-.464624-.850168-.42624-1.886531.1-2.7c5.31644-8.186221,9.299359-17.164665,11.8-26.6.599861-2.225702,2.130625-4.084487,4.2-5.1l40.7-20.3c2.28219-1.149019,4.975949-1.138775,7.249333.02757s3.852878,3.348464,4.250667,5.87243l12.5,76.3c.124541.70292-.045412,1.426126-.47,2-.424793.545497-1.045288.904164-1.73,1l-55.5,7.7c-1.078426.018181-2.093453-.50813-2.7-1.4l-.01-.04Zm48.5,74.2c-4.078913.596194-8.100932-1.394905-10.1-5l-27.3-49.3c-.409218-.760459-.431503-1.670421-.06-2.45.385461-.784669,1.134373-1.32763,2-1.45l111.4-15.4l4.2,62-80.14,11.6Z" opacity="0.8" fill="#fff" stroke="#dee2e7" stroke-width="2" stroke-miterlimit="10"/><path d="M316.61,430.36l-11.4-14c-1.355487-1.699477-3.336502-2.783638-5.4986-3.009248s-4.32426.426219-6.0014,1.809248l-14,11.4c-1.694777,1.358677-2.775376,3.339053-3.000812,5.49948s.423041,4.32123,1.800812,6.00052l11.4,14c1.358677,1.694777,3.339053,2.775376,5.49948,3.000812s4.32123-.423041,6.00052-1.800812l14-11.4c3.4892-2.853894,4.024854-7.987248,1.2-11.5Z" fill="#eceef1"/></g><clipPath id="exEzyuDm5RK12"><path d="M622.84,606.57h-339.78c-10.631192.015963-20.831404-4.200879-28.347862-11.719214s-11.730755-17.719599-11.712138-28.350786v-439.86c-.01866-10.639871,4.202493-20.848748,11.729781-28.36853s17.740372-11.730746,28.380219-11.70147h339.73c10.64281-.023905,20.857908,4.187189,28.391967,11.704364s11.76806,17.722799,11.768033,28.365636v439.86c-.065998,22.118262-17.991684,40.026071-40.11,40.07h-.05Z" fill="none"/></clipPath></g><path d="M337.63,144h-9.19v9.67h-2.88v-21.9h13.56v2.36h-10.68v7.51h9.19v2.36Zm4.53-10.92c-.01913-.419216.128247-.828996.41-1.14.318235-.327739.764133-.499519,1.22-.47.461857-.030056.9141.141359,1.24.47.525069.542637.620703,1.370089.233254,2.01819s-1.161573.955595-1.888125.749988-1.224751-.873155-1.215129-1.628178Zm3,20.59h-2.78v-16.27h2.78v16.27Zm7.08-16.27l.09,2c1.156206-1.518777,2.971844-2.389391,4.88-2.34c3.43,0,5.17,1.94,5.2,5.82v10.75h-2.78v-10.73c.065344-.937548-.223734-1.865454-.81-2.6-.664873-.614345-1.558239-.919397-2.46-.84-.846281-.016806-1.676079.235285-2.37.72-.687272.481616-1.238423,1.132663-1.6,1.89v11.6h-2.78v-16.27h2.63Zm13.69,8c-.100349-2.141997.523116-4.255437,1.77-6c1.092167-1.391533,2.742728-2.230206,4.510604-2.291898s3.472885.659882,4.659396,1.971898v-8.48h2.78v23.1h-2.55l-.14-1.75c-1.135745,1.378264-2.856264,2.138407-4.64,2.05-1.824239.02988-3.547056-.837134-4.61-2.32-1.246201-1.745358-1.872777-3.857412-1.78-6v-.28Zm2.78.31c-.090558,1.527881.308814,3.044795,1.14,4.33.72234,1.021379,1.909686,1.611295,3.16,1.57c1.649663.060601,3.173289-.878837,3.86-2.38v-7.47c-.708202-1.457792-2.210394-2.359892-3.83-2.3-1.263069-.05119-2.465283.544263-3.19,1.58-.849767,1.402987-1.247739,3.033274-1.14,4.67Z" fill="#505050"/><path d="M302.21,151.37h-8.4c-2.761424,0-5-2.238576-5-5v-8.37c0-2.761424,2.238576-5,5-5h8.4c2.761424,0,5,2.238576,5,5v8.4c.030388,1.335166-.486632,2.624668-1.430982,3.569018s-2.233852,1.46137-3.569018,1.430982v-.03Z" fill="none" stroke="#505050" stroke-width="2.0207" stroke-miterlimit="10"/><path d="M299.51,145.27h-2.9c-.450094.007196-.883587-.169814-1.2-.49-.321523-.320407-.501557-.756089-.5-1.21v-2.9c.005461-.936613.763387-1.694539,1.7-1.7h2.9c.453911-.001557.889593.178477,1.21.5.320186.316413.497196.749906.49,1.2v2.9c.00822.453338-.168246.890532-.488857,1.211143s-.757805.497077-1.211143.488857Z" fill="#505050"/><path style="isolation:isolate" d="M624.11,580.39h-51.8c-8.109465-.021977-14.678023-6.590535-14.7-14.7v-51.8c.011017-8.114018,6.585982-14.688983,14.7-14.7h51.8c8.1163.005516,14.694484,6.5837,14.7,14.7v51.8c-.011017,8.114018-6.585982,14.688983-14.7,14.7Z" opacity="0.68" fill="#505050"/><polyline points="592.21,524.89 607.11,539.89 592.21,554.79" fill="none" stroke="#fff" stroke-width="6" stroke-miterlimit="10"/></g><g id="exEzyuDm5RK19" transform="matrix(.994125 0.108236-.108236 0.994125 31.918802-31.394427)"><path d="M332,269l-1,2.32c-8.51-9.94-21.78-25.39-22.9-26.23-2.5-1.63-5.59-2.2-11.6,2.67s-6.09,8-5,10.8c.5,1.35,12.89,17.51,20.95,27.81l-2.48.55c.29,1.08,1.77,1.64,3.35,1.24.16,0,.34-.13.5-.11c2.56,3.34,4.57,5.81,5.14,6.51c3.15,3.89,7.17,4.87,10.48,3.36c1.867317-.889466,3.614537-2.011719,5.2-3.34c1.620038-1.284915,3.077448-2.762473,4.34-4.4c2.16-2.93,2-7.07-1.13-11-.64-.8-2.58-3.18-5.32-6.37.117463-.130828.190914-.295216.21-.47.63-1.39.39-2.95-.69-3.39L332,269Z" fill="#ffd02e" stroke="#ff7d17" stroke-width="0.548229" stroke-linejoin="round"/><path d="M325.33,298.59c-2.23-.39-5.68-4.47-7.12-6.24-.429426-.572302-.720372-1.236343-.85-1.94" fill="none" stroke="#ff7d17" stroke-width="0.548229" stroke-linecap="round" stroke-miterlimit="11.3717"/><path d="M340.16,286.55c.07-2.25-3.21-6.48-4.64-8.24-.473138-.538989-1.065506-.960153-1.73-1.23" fill="none" stroke="#ff7d17" stroke-width="0.548229" stroke-linecap="round" stroke-miterlimit="11.3717"/><path d="M314,273.4v0c-.120175-.137373-.178097-.318379-.16-.5.01637-.183623.111127-.351269.26-.46l2.83-2.3c.137963-.119127.318508-.176901.5-.16.181412.023245.346521.116567.46.26v0c.117731.142668.175136.325648.16.51-.02259.178873-.116317.341092-.26.45l-2.83,2.3c-.127656.138229-.312761.208569-.5.19-.189807-.020681-.359499-.127661-.46-.29Z" fill="#ff7d17" stroke="#ff7d17" stroke-width="0.548229" stroke-linejoin="round"/><path d="M313.64,288.16c.343359-.160781.677238-.341076,1-.54" fill="none" stroke="#f43646" stroke-width="0.548229" stroke-miterlimit="11.3717"/><path d="M332.36,273c-.230242.309947-.477278.607058-.74.89" fill="none" stroke="#f43646" stroke-width="0.548229" stroke-miterlimit="11.3717"/><line x1="295.77" y1="260.19" x2="291.34" y2="253.82" fill="none" stroke="#ff7d17" stroke-width="0.548229" stroke-linecap="round" stroke-miterlimit="11.3717"/><line x1="308.66" y1="249.73" x2="303.35" y2="244.08" fill="none" stroke="#ff7d17" stroke-width="0.548229" stroke-linecap="round" stroke-miterlimit="11.3717"/><path d="M313.85,286.08l-4,.88" fill="none" stroke="#505050" stroke-width="0.607703" stroke-linecap="round" stroke-linejoin="round"/><path d="M330.28,272.75L332,269" fill="none" stroke="#505050" stroke-width="0.607703" stroke-linecap="round" stroke-linejoin="round"/><path d="M315.24,288.32l-16.33-21-1.08-2.78c7.312851,6.70268,13.22946,14.784068,17.41,23.78Z" fill="#505050"/><path d="M332.19,274.57L315,254.26l-2.5-1.63c5.050889,8.541252,11.742889,15.997955,19.69,21.94Z" fill="#505050"/><path d="M327.15,285.68c-2.040304,1.60596-4.326342,2.872229-6.77,3.75-1.228162.531214-2.651515.317905-3.67-.55l-3.89-7.68c5.232596-2.290455,9.748595-5.95301,13.07-10.6l6.72,5.38c.636927,1.174666.551637,2.609086-.22,3.7-1.437894,2.249961-3.204081,4.272314-5.24,6Z" fill="#19222d"/><path d="M318.41,288.09c2.568463-1.133057,4.978673-2.595318,7.17-4.35c2.157891-1.789144,4.082909-3.841824,5.73-6.11.389619-.564416.674179-1.194514.84-1.86l-2.92-2.32v0c-2.149453,2.258119-4.447945,4.369524-6.88,6.32l-2.21,1.79c-.785982-.356761-1.706779-.232434-2.37.32-.8.64-1.29,1.48-1.11,2.07-.78.48-1.39,1-1.91,1.25v0l1.68,3.33c.688689-.017265,1.367653-.166637,2-.44h-.02Z" fill="#505050"/><path d="M300.07,252.31c-2.18199,1.621252-3.905011,3.78192-5,6.27-.174292.519461-.047331,1.09271.33,1.49l4.18,4.07c3.352998-4.086806,7.499888-7.451264,12.19-9.89l-3.13-4.93c-.2738-.493448-.838449-.749368-1.39-.63-2.667152.562491-5.14175,1.81013-7.18,3.62Z" fill="#505050"/><path d="M304.37,257.61c-2.140068,1.621601-4.030256,3.548851-5.61,5.72l.8.81c1.726221-1.986268,3.594472-3.844493,5.59-5.56c2.085664-1.610507,4.292179-3.058115,6.6-4.33l-.63-.95c-2.448399,1.099334-4.722544,2.551417-6.75,4.31Z" fill="#19222d"/><path d="M327.51,298.58c.646765-.089543,1.270935-.299862,1.84-.62c1.219599-.566748,2.376-1.260588,3.45-2.07" fill="none" stroke="#505050" stroke-width="0.607703" stroke-linecap="round" stroke-linejoin="round"/><path d="M339.78,288.61c-.219534.620349-.559362,1.191261-1,1.68-.808994,1.072207-1.723579,2.060496-2.73,2.95" fill="none" stroke="#505050" stroke-width="0.607703" stroke-linecap="round" stroke-linejoin="round"/></g><g><path d="M598.21,233.54c-9.29657.005521-16.830002,7.543429-16.83,16.84c0,7.6,11.26,22.85,15.36,28.16.352305.454445.894988.720395,1.47.720395s1.117695-.26595,1.47-.720395c4.11-5.31,15.37-20.56,15.37-28.17-.005521-9.29657-7.543429-16.830002-16.84-16.83Zm1,23.93c-3.163636.41413-6.23977-1.232284-7.649894-4.094389s-.841143-6.304422,1.41497-8.560535s5.69843-2.825093,8.560535-1.41497s4.508519,4.486258,4.094389,7.649894c-.447882,3.353812-3.094136,5.987758-6.45,6.42h.03Z" fill="#d95c26"/></g>
<script><![CDATA[
!function(t,n){"object"==typeof exports&&"undefined"!=typeof module?module.exports=n():"function"==typeof __SVGATOR_DEFINE__&&__SVGATOR_DEFINE__.amd?__SVGATOR_DEFINE__(n):((t="undefined"!=typeof globalThis?globalThis:t||self).__SVGATOR_PLAYER__=t.__SVGATOR_PLAYER__||{},t.__SVGATOR_PLAYER__["5c7f360c"]=n())}(this,(function(){"use strict";function t(t,n){var e=Object.keys(t);if(Object.getOwnPropertySymbols){var r=Object.getOwnPropertySymbols(t);n&&(r=r.filter((function(n){return Object.getOwnPropertyDescriptor(t,n).enumerable}))),e.push.apply(e,r)}return e}function n(n){for(var e=1;e<arguments.length;e++){var r=null!=arguments[e]?arguments[e]:{};e%2?t(Object(r),!0).forEach((function(t){u(n,t,r[t])})):Object.getOwnPropertyDescriptors?Object.defineProperties(n,Object.getOwnPropertyDescriptors(r)):t(Object(r)).forEach((function(t){Object.defineProperty(n,t,Object.getOwnPropertyDescriptor(r,t))}))}return n}function e(t){return(e="function"==typeof Symbol&&"symbol"==typeof Symbol.iterator?function(t){return typeof t}:function(t){return t&&"function"==typeof Symbol&&t.constructor===Symbol&&t!==Symbol.prototype?"symbol":typeof t})(t)}function r(t,n){if(!(t instanceof n))throw new TypeError("Cannot call a class as a function")}function i(t,n){for(var e=0;e<n.length;e++){var r=n[e];r.enumerable=r.enumerable||!1,r.configurable=!0,"value"in r&&(r.writable=!0),Object.defineProperty(t,r.key,r)}}function o(t,n,e){return n&&i(t.prototype,n),e&&i(t,e),t}function u(t,n,e){return n in t?Object.defineProperty(t,n,{value:e,enumerable:!0,configurable:!0,writable:!0}):t[n]=e,t}function a(t){return(a=Object.setPrototypeOf?Object.getPrototypeOf:function(t){return t.__proto__||Object.getPrototypeOf(t)})(t)}function l(t,n){return(l=Object.setPrototypeOf||function(t,n){return t.__proto__=n,t})(t,n)}function s(){if("undefined"==typeof Reflect||!Reflect.construct)return!1;if(Reflect.construct.sham)return!1;if("function"==typeof Proxy)return!0;try{return Boolean.prototype.valueOf.call(Reflect.construct(Boolean,[],(function(){}))),!0}catch(t){return!1}}function f(t,n,e){return(f=s()?Reflect.construct:function(t,n,e){var r=[null];r.push.apply(r,n);var i=new(Function.bind.apply(t,r));return e&&l(i,e.prototype),i}).apply(null,arguments)}function c(t,n){if(n&&("object"==typeof n||"function"==typeof n))return n;if(void 0!==n)throw new TypeError("Derived constructors may only return object or undefined");return function(t){if(void 0===t)throw new ReferenceError("this hasn't been initialised - super() hasn't been called");return t}(t)}function h(t,n,e){return(h="undefined"!=typeof Reflect&&Reflect.get?Reflect.get:function(t,n,e){var r=function(t,n){for(;!Object.prototype.hasOwnProperty.call(t,n)&&null!==(t=a(t)););return t}(t,n);if(r){var i=Object.getOwnPropertyDescriptor(r,n);return i.get?i.get.call(e):i.value}})(t,n,e||t)}function v(t){return function(t){if(Array.isArray(t))return y(t)}(t)||function(t){if("undefined"!=typeof Symbol&&null!=t[Symbol.iterator]||null!=t["@@iterator"])return Array.from(t)}(t)||function(t,n){if(!t)return;if("string"==typeof t)return y(t,n);var e=Object.prototype.toString.call(t).slice(8,-1);"Object"===e&&t.constructor&&(e=t.constructor.name);if("Map"===e||"Set"===e)return Array.from(t);if("Arguments"===e||/^(?:Ui|I)nt(?:8|16|32)(?:Clamped)?Array$/.test(e))return y(t,n)}(t)||function(){throw new TypeError("Invalid attempt to spread non-iterable instance.\nIn order to be iterable, non-array objects must have a [Symbol.iterator]() method.")}()}function y(t,n){(null==n||n>t.length)&&(n=t.length);for(var e=0,r=new Array(n);e<n;e++)r[e]=t[e];return r}function g(t,n,e){if(Number.isInteger(t))return t;var r=Math.pow(10,n);return Math[e]((+t+Number.EPSILON)*r)/r}Number.isInteger||(Number.isInteger=function(t){return"number"==typeof t&&isFinite(t)&&Math.floor(t)===t}),Number.EPSILON||(Number.EPSILON=2220446049250313e-31);var d=p(Math.pow(10,-6));function p(t){var n=arguments.length>1&&void 0!==arguments[1]?arguments[1]:6;return g(t,n,"round")}function m(t,n){var e=arguments.length>2&&void 0!==arguments[2]?arguments[2]:d;return Math.abs(t-n)<e}p(Math.pow(10,-2)),p(Math.pow(10,-4));var b=Math.PI/180;function w(t){return t}function A(t,n,e){var r=1-e;return 3*e*r*(t*r+n*e)+e*e*e}function _(){var t=arguments.length>0&&void 0!==arguments[0]?arguments[0]:0,n=arguments.length>1&&void 0!==arguments[1]?arguments[1]:0,e=arguments.length>2&&void 0!==arguments[2]?arguments[2]:1,r=arguments.length>3&&void 0!==arguments[3]?arguments[3]:1;return t<0||t>1||e<0||e>1?null:m(t,n)&&m(e,r)?w:function(i){if(i<=0)return t>0?i*n/t:0===n&&e>0?i*r/e:0;if(i>=1)return e<1?1+(i-1)*(r-1)/(e-1):1===e&&t<1?1+(i-1)*(n-1)/(t-1):1;for(var o,u=0,a=1;u<a;){var l=A(t,e,o=(u+a)/2);if(m(i,l))break;l<i?u=o:a=o}return A(n,r,o)}}function x(){return 1}function k(t){return 1===t?1:0}function S(){var t=arguments.length>0&&void 0!==arguments[0]?arguments[0]:1,n=arguments.length>1&&void 0!==arguments[1]?arguments[1]:0;if(1===t){if(0===n)return k;if(1===n)return x}var e=1/t;return function(t){return t>=1?1:(t+=n*e)-t%e}}var O=Math.sin,j=Math.cos,M=Math.acos,E=Math.asin,P=Math.tan,I=Math.atan2,R=Math.PI/180,F=180/Math.PI,N=Math.sqrt,T=function(){function t(){var n=arguments.length>0&&void 0!==arguments[0]?arguments[0]:1,e=arguments.length>1&&void 0!==arguments[1]?arguments[1]:0,i=arguments.length>2&&void 0!==arguments[2]?arguments[2]:0,o=arguments.length>3&&void 0!==arguments[3]?arguments[3]:1,u=arguments.length>4&&void 0!==arguments[4]?arguments[4]:0,a=arguments.length>5&&void 0!==arguments[5]?arguments[5]:0;r(this,t),this.m=[n,e,i,o,u,a],this.i=null,this.w=null,this.s=null}return o(t,[{key:"determinant",get:function(){var t=this.m;return t[0]*t[3]-t[1]*t[2]}},{key:"isIdentity",get:function(){if(null===this.i){var t=this.m;this.i=1===t[0]&&0===t[1]&&0===t[2]&&1===t[3]&&0===t[4]&&0===t[5]}return this.i}},{key:"point",value:function(t,n){var e=this.m;return{x:e[0]*t+e[2]*n+e[4],y:e[1]*t+e[3]*n+e[5]}}},{key:"translateSelf",value:function(){var t=arguments.length>0&&void 0!==arguments[0]?arguments[0]:0,n=arguments.length>1&&void 0!==arguments[1]?arguments[1]:0;if(!t&&!n)return this;var e=this.m;return e[4]+=e[0]*t+e[2]*n,e[5]+=e[1]*t+e[3]*n,this.w=this.s=this.i=null,this}},{key:"rotateSelf",value:function(){var t=arguments.length>0&&void 0!==arguments[0]?arguments[0]:0;if(t%=360){var n=O(t*=R),e=j(t),r=this.m,i=r[0],o=r[1];r[0]=i*e+r[2]*n,r[1]=o*e+r[3]*n,r[2]=r[2]*e-i*n,r[3]=r[3]*e-o*n,this.w=this.s=this.i=null}return this}},{key:"scaleSelf",value:function(){var t=arguments.length>0&&void 0!==arguments[0]?arguments[0]:1,n=arguments.length>1&&void 0!==arguments[1]?arguments[1]:1;if(1!==t||1!==n){var e=this.m;e[0]*=t,e[1]*=t,e[2]*=n,e[3]*=n,this.w=this.s=this.i=null}return this}},{key:"skewSelf",value:function(t,n){if(n%=360,(t%=360)||n){var e=this.m,r=e[0],i=e[1],o=e[2],u=e[3];t&&(t=P(t*R),e[2]+=r*t,e[3]+=i*t),n&&(n=P(n*R),e[0]+=o*n,e[1]+=u*n),this.w=this.s=this.i=null}return this}},{key:"resetSelf",value:function(){var t=arguments.length>0&&void 0!==arguments[0]?arguments[0]:1,n=arguments.length>1&&void 0!==arguments[1]?arguments[1]:0,e=arguments.length>2&&void 0!==arguments[2]?arguments[2]:0,r=arguments.length>3&&void 0!==arguments[3]?arguments[3]:1,i=arguments.length>4&&void 0!==arguments[4]?arguments[4]:0,o=arguments.length>5&&void 0!==arguments[5]?arguments[5]:0,u=this.m;return u[0]=t,u[1]=n,u[2]=e,u[3]=r,u[4]=i,u[5]=o,this.w=this.s=this.i=null,this}},{key:"recomposeSelf",value:function(){var t=arguments.length>0&&void 0!==arguments[0]?arguments[0]:null,n=arguments.length>1&&void 0!==arguments[1]?arguments[1]:null,e=arguments.length>2&&void 0!==arguments[2]?arguments[2]:null,r=arguments.length>3&&void 0!==arguments[3]?arguments[3]:null,i=arguments.length>4&&void 0!==arguments[4]?arguments[4]:null;return this.isIdentity||this.resetSelf(),t&&(t.x||t.y)&&this.translateSelf(t.x,t.y),n&&this.rotateSelf(n),e&&(e.x&&this.skewSelf(e.x,0),e.y&&this.skewSelf(0,e.y)),!r||1===r.x&&1===r.y||this.scaleSelf(r.x,r.y),i&&(i.x||i.y)&&this.translateSelf(i.x,i.y),this}},{key:"decompose",value:function(){var t=arguments.length>0&&void 0!==arguments[0]?arguments[0]:0,n=arguments.length>1&&void 0!==arguments[1]?arguments[1]:0,e=this.m,r=e[0]*e[0]+e[1]*e[1],i=[[e[0],e[1]],[e[2],e[3]]],o=N(r);if(0===o)return{origin:{x:p(e[4]),y:p(e[5])},translate:{x:p(t),y:p(n)},scale:{x:0,y:0},skew:{x:0,y:0},rotate:0};i[0][0]/=o,i[0][1]/=o;var u=e[0]*e[3]-e[1]*e[2]<0;u&&(o=-o);var a=i[0][0]*i[1][0]+i[0][1]*i[1][1];i[1][0]-=i[0][0]*a,i[1][1]-=i[0][1]*a;var l=N(i[1][0]*i[1][0]+i[1][1]*i[1][1]);if(0===l)return{origin:{x:p(e[4]),y:p(e[5])},translate:{x:p(t),y:p(n)},scale:{x:p(o),y:0},skew:{x:0,y:0},rotate:0};i[1][0]/=l,i[1][1]/=l,a/=l;var s=0;return i[1][1]<0?(s=M(i[1][1])*F,i[0][1]<0&&(s=360-s)):s=E(i[0][1])*F,u&&(s=-s),a=I(a,N(i[0][0]*i[0][0]+i[0][1]*i[0][1]))*F,u&&(a=-a),{origin:{x:p(e[4]),y:p(e[5])},translate:{x:p(t),y:p(n)},scale:{x:p(o),y:p(l)},skew:{x:p(a),y:0},rotate:p(s)}}},{key:"clone",value:function(){var t=this.m;return new this.constructor(t[0],t[1],t[2],t[3],t[4],t[5])}},{key:"toString",value:function(){var t=arguments.length>0&&void 0!==arguments[0]?arguments[0]:" ";if(null===this.s){var n=this.m.map((function(t){return p(t)}));1===n[0]&&0===n[1]&&0===n[2]&&1===n[3]?this.s="translate("+n[4]+t+n[5]+")":this.s="matrix("+n.join(t)+")"}return this.s}}],[{key:"create",value:function(t){return t?Array.isArray(t)?f(this,v(t)):t instanceof this?t.clone():(new this).recomposeSelf(t.origin,t.rotate,t.skew,t.scale,t.translate):new this}}]),t}();function q(t,n,e){return t>=.5?e:n}function B(t,n,e){return 0===t||n===e?n:t*(e-n)+n}function D(t,n,e){var r=B(t,n,e);return r<=0?0:r}function L(t,n,e){var r=B(t,n,e);return r<=0?0:r>=1?1:r}function C(t,n,e){return 0===t?n:1===t?e:{x:B(t,n.x,e.x),y:B(t,n.y,e.y)}}function V(t,n,e){var r=function(t,n,e){return Math.round(B(t,n,e))}(t,n,e);return r<=0?0:r>=255?255:r}function G(t,n,e){return 0===t?n:1===t?e:{r:V(t,n.r,e.r),g:V(t,n.g,e.g),b:V(t,n.b,e.b),a:B(t,null==n.a?1:n.a,null==e.a?1:e.a)}}function z(t,n){for(var e=[],r=0;r<t;r++)e.push(n);return e}function Y(t,n){if(--n<=0)return t;var e=(t=Object.assign([],t)).length;do{for(var r=0;r<e;r++)t.push(t[r])}while(--n>0);return t}var $,U=function(){function t(n){r(this,t),this.list=n,this.length=n.length}return o(t,[{key:"setAttribute",value:function(t,n){for(var e=this.list,r=0;r<this.length;r++)e[r].setAttribute(t,n)}},{key:"removeAttribute",value:function(t){for(var n=this.list,e=0;e<this.length;e++)n[e].removeAttribute(t)}},{key:"style",value:function(t,n){for(var e=this.list,r=0;r<this.length;r++)e[r].style[t]=n}}]),t}(),Q=/-./g,H=function(t,n){return n.toUpperCase()};function J(t){return"function"==typeof t?t:q}function Z(t){return t?"function"==typeof t?t:Array.isArray(t)?function(t){var n=arguments.length>1&&void 0!==arguments[1]?arguments[1]:w;if(!Array.isArray(t))return n;switch(t.length){case 1:return S(t[0])||n;case 2:return S(t[0],t[1])||n;case 4:return _(t[0],t[1],t[2],t[3])||n}return n}(t,null):function(t,n){var e=arguments.length>2&&void 0!==arguments[2]?arguments[2]:w;switch(t){case"linear":return w;case"steps":return S(n.steps||1,n.jump||0)||e;case"bezier":case"cubic-bezier":return _(n.x1||0,n.y1||0,n.x2||0,n.y2||0)||e}return e}(t.type,t.value,null):null}function K(t,n,e){var r=arguments.length>3&&void 0!==arguments[3]&&arguments[3],i=n.length-1;if(t<=n[0].t)return r?[0,0,n[0].v]:n[0].v;if(t>=n[i].t)return r?[i,1,n[i].v]:n[i].v;var o,u=n[0],a=null;for(o=1;o<=i;o++){if(!(t>n[o].t)){a=n[o];break}u=n[o]}return null==a?r?[i,1,n[i].v]:n[i].v:u.t===a.t?r?[o,1,a.v]:a.v:(t=(t-u.t)/(a.t-u.t),u.e&&(t=u.e(t)),r?[o,t,e(t,u.v,a.v)]:e(t,u.v,a.v))}function W(t,n){var e=arguments.length>2&&void 0!==arguments[2]?arguments[2]:null;return t&&t.length?"function"!=typeof n?null:("function"!=typeof e&&(e=null),function(r){var i=K(r,t,n);return null!=i&&e&&(i=e(i)),i}):null}function X(t,n){return t.t-n.t}function tt(t,n,r,i,o){var u,a="@"===r[0],l="#"===r[0],s=$[r],f=q;switch(a?(u=r.substr(1),r=u.replace(Q,H)):l&&(r=r.substr(1)),e(s)){case"function":if(f=s(i,o,K,Z,r,a,n,t),l)return f;break;case"string":f=W(i,J(s));break;case"object":if((f=W(i,J(s.i),s.f))&&"function"==typeof s.u)return s.u(n,f,r,a,t)}return f?function(t,n,e){if(arguments.length>3&&void 0!==arguments[3]&&arguments[3])return t instanceof U?function(r){return t.style(n,e(r))}:function(r){return t.style[n]=e(r)};if(Array.isArray(n)){var r=n.length;return function(i){var o=e(i);if(null==o)for(var u=0;u<r;u++)t[u].removeAttribute(n);else for(var a=0;a<r;a++)t[a].setAttribute(n,o)}}return function(r){var i=e(r);null==i?t.removeAttribute(n):t.setAttribute(n,i)}}(n,r,f,a):null}function nt(t,n,r,i){if(!i||"object"!==e(i))return null;var o=null,u=null;return Array.isArray(i)?u=function(t){if(!t||!t.length)return null;for(var n=0;n<t.length;n++)t[n].e&&(t[n].e=Z(t[n].e));return t.sort(X)}(i):(u=i.keys,o=i.data||null),u?tt(t,n,r,u,o):null}function et(t,n,e){if(!e)return null;var r=[];for(var i in e)if(e.hasOwnProperty(i)){var o=nt(t,n,i,e[i]);o&&r.push(o)}return r.length?r:null}function rt(t,n){if(!n.settings.duration||n.settings.duration<0)return null;var e,r,i,o,u,a=function(t,n){if(!n)return null;var e=[];if(Array.isArray(n))for(var r=n.length,i=0;i<r;i++){var o=n[i];if(2===o.length){var u=null;if("string"==typeof o[0])u=t.getElementById(o[0]);else if(Array.isArray(o[0])){u=[];for(var a=0;a<o[0].length;a++)if("string"==typeof o[0][a]){var l=t.getElementById(o[0][a]);l&&u.push(l)}u=u.length?1===u.length?u[0]:new U(u):null}if(u){var s=et(t,u,o[1]);s&&(e=e.concat(s))}}}else for(var f in n)if(n.hasOwnProperty(f)){var c=t.getElementById(f);if(c){var h=et(t,c,n[f]);h&&(e=e.concat(h))}}return e.length?e:null}(t,n.elements);return a?(e=a,r=n.settings,i=r.duration,o=e.length,u=null,function(t,n){var a=r.iterations||1/0,l=(r.alternate&&a%2==0)^r.direction>0?i:0,s=t%i,f=1+(t-s)/i;n*=r.direction,r.alternate&&f%2==0&&(n=-n);var c=!1;if(f>a)s=l,c=!0,-1===r.fill&&(s=r.direction>0?0:i);else if(n<0&&(s=i-s),s===u)return!1;u=s;for(var h=0;h<o;h++)e[h](s);return c}):null}function it(t,n){for(var e=n.querySelectorAll("svg"),r=0;r<e.length;r++)if(e[r].id===t.root&&!e[r].svgatorAnimation)return e[r].svgatorAnimation=!0,e[r];return null}function ot(t){var n=function(t){return t.shadowRoot};return document?Array.from(t.querySelectorAll(":not("+["a","area","audio","br","canvas","circle","datalist","embed","g","head","hr","iframe","img","input","link","object","path","polygon","rect","script","source","style","svg","title","track","video"].join()+")")).filter(n).map(n):[]}function ut(t){var n=arguments.length>1&&void 0!==arguments[1]?arguments[1]:document,e=arguments.length>2&&void 0!==arguments[2]?arguments[2]:0,r=it(t,n);if(r)return r;if(e>=20)return null;for(var i=ot(n),o=0;o<i.length;o++){var u=ut(t,i[o],e+1);if(u)return u}return null}function at(t,n){if($=n,!t||!t.root||!Array.isArray(t.animations))return null;var e=ut(t);if(!e)return null;var r=t.animations.map((function(t){return rt(e,t)})).filter((function(t){return!!t}));return r.length?{svg:e,animations:r,animationSettings:t.animationSettings,options:t.options||void 0}:null}function lt(t){var n=arguments.length>1&&void 0!==arguments[1]?arguments[1]:null,e=arguments.length>2&&void 0!==arguments[2]?arguments[2]:Number,r=arguments.length>3&&void 0!==arguments[3]?arguments[3]:"undefined"!=typeof BigInt&&BigInt,i="0x"+(t.replace(/[^0-9a-fA-F]+/g,"")||27);return n&&r&&e.isSafeInteger&&!e.isSafeInteger(+i)?e(r(i))%n+n:+i}function st(t,n,e){return!t||!e||n>t.length?t:t.substring(0,n)+st(t.substring(n+1),e,e)}function ft(t){var n=arguments.length>1&&void 0!==arguments[1]?arguments[1]:27;return!t||t%n?t%n:[0,1].includes(n)?n:ft(t/n,n)}function ct(t,n,e){if(t&&t.length){var r=lt(e),i=ft(r)+5,o=st(t,ft(r,5),i);return o=o.replace(/\x7c$/g,"==").replace(/\x2f$/g,"="),o=function(t,n,e){var r=+("0x"+t.substring(0,4));t=t.substring(4);for(var i=lt(n,r)%r+e%27,o=[],u=0;u<t.length;u+=2)if("|"!==t[u]){var a=+("0x"+t[u]+t[u+1])-i;o.push(a)}else{var l=+("0x"+t.substring(u+1,u+1+4))-i;u+=3,o.push(l)}return String.fromCharCode.apply(String,o)}(o=(o=atob(o)).replace(/[\x41-\x5A]/g,""),n,r),o=JSON.parse(o)}}var ht=[{key:"alternate",def:!1},{key:"fill",def:1},{key:"iterations",def:0},{key:"direction",def:1},{key:"speed",def:1},{key:"fps",def:100}],vt=function(){function t(n,e){var i=this,o=arguments.length>2&&void 0!==arguments[2]?arguments[2]:null;r(this,t),this._id=0,this._running=!1,this._rollingBack=!1,this._animations=n,this._settings=e,(!o||o<"2022-05-02")&&delete this._settings.speed,ht.forEach((function(t){i._settings[t.key]=i._settings[t.key]||t.def})),this.duration=e.duration,this.offset=e.offset||0,this.rollbackStartOffset=0}return o(t,[{key:"alternate",get:function(){return this._settings.alternate}},{key:"fill",get:function(){return this._settings.fill}},{key:"iterations",get:function(){return this._settings.iterations}},{key:"direction",get:function(){return this._settings.direction}},{key:"speed",get:function(){return this._settings.speed}},{key:"fps",get:function(){return this._settings.fps}},{key:"maxFiniteDuration",get:function(){return this.iterations>0?this.iterations*this.duration:this.duration}},{key:"_apply",value:function(t){for(var n=arguments.length>1&&void 0!==arguments[1]?arguments[1]:{},e=this._animations,r=e.length,i=0,o=0;o<r;o++)n[o]?i++:(n[o]=e[o](t,1),n[o]&&i++);return i}},{key:"_rollback",value:function(t){var n=this,e=1/0,r=null;this.rollbackStartOffset=t,this._rollingBack=!0,this._running=!0;this._id=window.requestAnimationFrame((function i(o){if(n._rollingBack){null==r&&(r=o);var u=Math.round(t-(o-r)*n.speed);if(u>n.duration&&e!==1/0){var a=!!n.alternate&&u/n.duration%2>1,l=u%n.duration;u=(l+=a?n.duration:0)||n.duration}var s=(n.fps?1e3/n.fps:0)*n.speed,f=Math.max(0,u);f<=e-s&&(n.offset=f,e=f,n._apply(f));var c=n.iterations>0&&-1===n.fill&&u>=n.maxFiniteDuration;(u<=0||n.offset<u||c)&&n.stop(),n._id=window.requestAnimationFrame(i)}}))}},{key:"_start",value:function(){var t=this,n=arguments.length>0&&void 0!==arguments[0]?arguments[0]:0,e=-1/0,r=null,i={};this._running=!0;var o=function o(u){null==r&&(r=u);var a=Math.round((u-r)*t.speed+n),l=(t.fps?1e3/t.fps:0)*t.speed;if(a>=e+l&&!t._rollingBack&&(t.offset=a,e=a,t._apply(a,i)===t._animations.length))return void t.pause(!0);t._id=window.requestAnimationFrame(o)};this._id=window.requestAnimationFrame(o)}},{key:"_pause",value:function(){this._id&&window.cancelAnimationFrame(this._id),this._running=!1}},{key:"play",value:function(){if(!this._running)return this._rollingBack?this._rollback(this.offset):this._start(this.offset)}},{key:"stop",value:function(){this._pause(),this.offset=0,this.rollbackStartOffset=0,this._rollingBack=!1,this._apply(0)}},{key:"reachedToEnd",value:function(){return this.iterations>0&&this.offset>=this.iterations*this.duration}},{key:"restart",value:function(){var t=arguments.length>0&&void 0!==arguments[0]&&arguments[0];this.stop(t),this.play(t)}},{key:"pause",value:function(){this._pause()}},{key:"reverse",value:function(){this.direction=-this.direction}}],[{key:"build",value:function(t,n){delete t.animationSettings,t.options=ct(t.options,t.root,"5c7f360c"),t.animations.map((function(n){n.settings=ct(n.s,t.root,"5c7f360c"),delete n.s,t.animationSettings||(t.animationSettings=n.settings)}));var e=t.version;if(!(t=at(t,n)))return null;var r=t.options||{},i=new this(t.animations,t.animationSettings,e);return{el:t.svg,options:r,player:i}}},{key:"push",value:function(t){return this.build(t)}},{key:"init",value:function(){var t=this,n=window.__SVGATOR_PLAYER__&&window.__SVGATOR_PLAYER__["5c7f360c"];Array.isArray(n)&&n.splice(0).forEach((function(n){return t.build(n)}))}}]),t}();function yt(t){return p(t)+""}function gt(t){var n=arguments.length>1&&void 0!==arguments[1]?arguments[1]:" ";return t&&t.length?t.map(yt).join(n):""}function dt(t){if(!t)return"transparent";if(null==t.a||t.a>=1){var n=function(t){return 1===(t=parseInt(t).toString(16)).length?"0"+t:t},e=function(t){return t.charAt(0)===t.charAt(1)},r=n(t.r),i=n(t.g),o=n(t.b);return e(r)&&e(i)&&e(o)&&(r=r.charAt(0),i=i.charAt(0),o=o.charAt(0)),"#"+r+i+o}return"rgba("+t.r+","+t.g+","+t.b+","+t.a+")"}function pt(t){return t?"url(#"+t+")":"none"}!function(){for(var t=0,n=["ms","moz","webkit","o"],e=0;e<n.length&&!window.requestAnimationFrame;++e)window.requestAnimationFrame=window[n[e]+"RequestAnimationFrame"],window.cancelAnimationFrame=window[n[e]+"CancelAnimationFrame"]||window[n[e]+"CancelRequestAnimationFrame"];window.requestAnimationFrame||(window.requestAnimationFrame=function(n){var e=Date.now(),r=Math.max(0,16-(e-t)),i=window.setTimeout((function(){n(e+r)}),r);return t=e+r,i},window.cancelAnimationFrame=window.clearTimeout)}();var mt={f:null,i:function(t,n,e){return 0===t?n:1===t?e:{x:D(t,n.x,e.x),y:D(t,n.y,e.y)}},u:function(t,n){return function(e){var r=n(e);t.setAttribute("rx",yt(r.x)),t.setAttribute("ry",yt(r.y))}}},bt={f:null,i:function(t,n,e){return 0===t?n:1===t?e:{width:D(t,n.width,e.width),height:D(t,n.height,e.height)}},u:function(t,n){return function(e){var r=n(e);t.setAttribute("width",yt(r.width)),t.setAttribute("height",yt(r.height))}}};Object.freeze({M:2,L:2,Z:0,H:1,V:1,C:6,Q:4,T:2,S:4,A:7});var wt={},At=null;function _t(t){var n=function(){if(At)return At;if("object"!==("undefined"==typeof document?"undefined":e(document))||!document.createElementNS)return{};var t=document.createElementNS("http://www.w3.org/2000/svg","svg");return t&&t.style?(t.style.position="absolute",t.style.opacity="0.01",t.style.zIndex="-9999",t.style.left="-9999px",t.style.width="1px",t.style.height="1px",At={svg:t}):{}}().svg;if(!n)return function(t){return null};var r=document.createElementNS(n.namespaceURI,"path");r.setAttributeNS(null,"d",t),r.setAttributeNS(null,"fill","none"),r.setAttributeNS(null,"stroke","none"),n.appendChild(r);var i=r.getTotalLength();return function(t){var n=r.getPointAtLength(i*t);return{x:n.x,y:n.y}}}function xt(t){return wt[t]?wt[t]:wt[t]=_t(t)}function kt(t,n,e,r){if(!t||!r)return!1;var i=["M",t.x,t.y];if(n&&e&&(i.push("C"),i.push(n.x),i.push(n.y),i.push(e.x),i.push(e.y)),n?!e:e){var o=n||e;i.push("Q"),i.push(o.x),i.push(o.y)}return n||e||i.push("L"),i.push(r.x),i.push(r.y),i.join(" ")}function St(t,n,e,r){var i=arguments.length>4&&void 0!==arguments[4]?arguments[4]:1,o=kt(t,n,e,r),u=xt(o);try{return u(i)}catch(t){return null}}function Ot(t,n,e){return t+(n-t)*e}function jt(t,n,e){var r=arguments.length>3&&void 0!==arguments[3]&&arguments[3],i={x:Ot(t.x,n.x,e),y:Ot(t.y,n.y,e)};return r&&(i.a=Mt(t,n)),i}function Mt(t,n){return Math.atan2(n.y-t.y,n.x-t.x)}function Et(t,n,e,r){var i=1-r;return i*i*t+2*i*r*n+r*r*e}function Pt(t,n,e,r){return 2*(1-r)*(n-t)+2*r*(e-n)}function It(t,n,e,r){var i=arguments.length>4&&void 0!==arguments[4]&&arguments[4],o=St(t,n,null,e,r);return o||(o={x:Et(t.x,n.x,e.x,r),y:Et(t.y,n.y,e.y,r)}),i&&(o.a=Rt(t,n,e,r)),o}function Rt(t,n,e,r){return Math.atan2(Pt(t.y,n.y,e.y,r),Pt(t.x,n.x,e.x,r))}function Ft(t,n,e,r,i){var o=i*i;return i*o*(r-t+3*(n-e))+3*o*(t+e-2*n)+3*i*(n-t)+t}function Nt(t,n,e,r,i){var o=1-i;return 3*(o*o*(n-t)+2*o*i*(e-n)+i*i*(r-e))}function Tt(t,n,e,r,i){var o=arguments.length>5&&void 0!==arguments[5]&&arguments[5],u=St(t,n,e,r,i);return u||(u={x:Ft(t.x,n.x,e.x,r.x,i),y:Ft(t.y,n.y,e.y,r.y,i)}),o&&(u.a=qt(t,n,e,r,i)),u}function qt(t,n,e,r,i){return Math.atan2(Nt(t.y,n.y,e.y,r.y,i),Nt(t.x,n.x,e.x,r.x,i))}function Bt(t,n,e){var r=arguments.length>3&&void 0!==arguments[3]&&arguments[3];if(Lt(n)){if(Ct(e))return It(n,e.start,e,t,r)}else if(Lt(e)){if(Vt(n))return It(n,n.end,e,t,r)}else{if(Vt(n))return Ct(e)?Tt(n,n.end,e.start,e,t,r):It(n,n.end,e,t,r);if(Ct(e))return It(n,e.start,e,t,r)}return jt(n,e,t,r)}function Dt(t,n,e){var r=Bt(t,n,e,!0);return r.a=function(t){return arguments.length>1&&void 0!==arguments[1]&&arguments[1]?t+Math.PI:t}(r.a)/b,r}function Lt(t){return!t.type||"corner"===t.type}function Ct(t){return null!=t.start&&!Lt(t)}function Vt(t){return null!=t.end&&!Lt(t)}var Gt=new T;var zt={f:yt,i:B},Yt={f:yt,i:L};function $t(t,n,e){return t.map((function(t){return function(t,n,e){var r=t.v;if(!r||"g"!==r.t||r.s||!r.v||!r.r)return t;var i=e.getElementById(r.r),o=i&&i.querySelectorAll("stop")||[];return r.s=r.v.map((function(t,n){var e=o[n]&&o[n].getAttribute("offset");return{c:t,o:e=p(parseInt(e)/100)}})),delete r.v,t}(t,0,e)}))}var Ut={gt:"gradientTransform",c:{x:"cx",y:"cy"},rd:"r",f:{x:"x1",y:"y1"},to:{x:"x2",y:"y2"}};function Qt(t,n,r,i,o,u,a,l){return $t(t,0,l),n=function(t,n,e){for(var r,i,o,u=t.length-1,a={},l=0;l<=u;l++)(r=t[l]).e&&(r.e=n(r.e)),r.v&&"g"===(i=r.v).t&&i.r&&(o=e.getElementById(i.r))&&(a[i.r]={e:o,s:o.querySelectorAll("stop")});return a}(t,i,l),function(i){var o=r(i,t,Ht);if(!o)return"none";if("c"===o.t)return dt(o.v);if("g"===o.t){if(!n[o.r])return pt(o.r);var u=n[o.r];return function(t,n){for(var e=t.s,r=e.length;r<n.length;r++){var i=e[e.length-1].cloneNode();i.id=Kt(i.id),t.e.appendChild(i),e=t.s=t.e.querySelectorAll("stop")}for(var o=0,u=e.length,a=n.length-1;o<u;o++)e[o].setAttribute("stop-color",dt(n[Math.min(o,a)].c)),e[o].setAttribute("offset",n[Math.min(o,a)].o)}(u,o.s),Object.keys(Ut).forEach((function(t){if(void 0!==o[t])if("object"!==e(Ut[t])){var n,r="gt"===t?(n=o[t],Array.isArray(n)?"matrix("+n.join(" ")+")":""):o[t],i=Ut[t];u.e.setAttribute(i,r)}else Object.keys(Ut[t]).forEach((function(n){if(void 0!==o[t][n]){var e=o[t][n],r=Ut[t][n];u.e.setAttribute(r,e)}}))})),pt(o.r)}return"none"}}function Ht(t,e,r){if(0===t)return e;if(1===t)return r;if(e&&r){var i=e.t;if(i===r.t)switch(e.t){case"c":return{t:i,v:G(t,e.v,r.v)};case"g":if(e.r===r.r){var o={t:i,s:Jt(t,e.s,r.s),r:e.r};return e.gt&&r.gt&&(o.gt=function(t,n,e){var r=n.length;if(r!==e.length)return q(t,n,e);for(var i=new Array(r),o=0;o<r;o++)i[o]=B(t,n[o],e[o]);return i}(t,e.gt,r.gt)),e.c?(o.c=C(t,e.c,r.c),o.rd=D(t,e.rd,r.rd)):e.f&&(o.f=C(t,e.f,r.f),o.to=C(t,e.to,r.to)),o}}if("c"===e.t&&"g"===r.t||"c"===r.t&&"g"===e.t){var u="c"===e.t?e:r,a="g"===e.t?n({},e):n({},r),l=a.s.map((function(t){return{c:u.v,o:t.o}}));return a.s="c"===e.t?Jt(t,l,a.s):Jt(t,a.s,l),a}}return q(t,e,r)}function Jt(t,n,e){if(n.length===e.length)return n.map((function(n,r){return Zt(t,n,e[r])}));for(var r=Math.max(n.length,e.length),i=[],o=0;o<r;o++){var u=Zt(t,n[Math.min(o,n.length-1)],e[Math.min(o,e.length-1)]);i.push(u)}return i}function Zt(t,n,e){return{o:L(t,n.o,e.o||0),c:G(t,n.c,e.c||{})}}function Kt(t){return t.replace(/-fill-([0-9]+)$/,(function(t,n){return"-fill-"+(+n+1)}))}var Wt={fill:Qt,"fill-opacity":Yt,stroke:Qt,"stroke-opacity":Yt,"stroke-width":zt,"stroke-dashoffset":{f:yt,i:B},"stroke-dasharray":{f:function(t){var n=arguments.length>1&&void 0!==arguments[1]?arguments[1]:" ";return t&&t.length>0&&(t=t.map((function(t){return p(t,4)}))),gt(t,n)},i:function(t,n,e){var r,i,o,u=n.length,a=e.length;if(u!==a)if(0===u)n=z(u=a,0);else if(0===a)a=u,e=z(u,0);else{var l=(o=(r=u)*(i=a)/function(t,n){for(var e;n;)e=n,n=t%n,t=e;return t||1}(r,i))<0?-o:o;n=Y(n,Math.floor(l/u)),e=Y(e,Math.floor(l/a)),u=a=l}for(var s=[],f=0;f<u;f++)s.push(p(D(t,n[f],e[f])));return s}},opacity:Yt,transform:function(t,n,r,i){if(!(t=function(t,n){if(!t||"object"!==e(t))return null;var r=!1;for(var i in t)t.hasOwnProperty(i)&&(t[i]&&t[i].length?(t[i].forEach((function(t){t.e&&(t.e=n(t.e))})),r=!0):delete t[i]);return r?t:null}(t,i)))return null;var o=function(e,i,o){var u=arguments.length>3&&void 0!==arguments[3]?arguments[3]:null;return t[e]?r(i,t[e],o):n&&n[e]?n[e]:u};return n&&n.a&&t.o?function(n){var e=r(n,t.o,Dt);return Gt.recomposeSelf(e,o("r",n,B,0)+e.a,o("k",n,C),o("s",n,C),o("t",n,C)).toString()}:function(t){return Gt.recomposeSelf(o("o",t,Bt,null),o("r",t,B,0),o("k",t,C),o("s",t,C),o("t",t,C)).toString()}},r:zt,"#size":bt,"#radius":mt,_:function(t,n){if(Array.isArray(t))for(var e=0;e<t.length;e++)this[t[e]]=n;else this[t]=n}},Xt=function(t){!function(t,n){if("function"!=typeof n&&null!==n)throw new TypeError("Super expression must either be null or a function");t.prototype=Object.create(n&&n.prototype,{constructor:{value:t,writable:!0,configurable:!0}}),n&&l(t,n)}(u,t);var n,e,i=(n=u,e=s(),function(){var t,r=a(n);if(e){var i=a(this).constructor;t=Reflect.construct(r,arguments,i)}else t=r.apply(this,arguments);return c(this,t)});function u(){return r(this,u),i.apply(this,arguments)}return o(u,null,[{key:"build",value:function(t){var n=h(a(u),"build",this).call(this,t,Wt);if(!n)return null;n.el,n.options,function(t,n,e){t.play()}(n.player)}}]),u}(vt);return Xt.init(),Xt}));
(function(s,i,o,w,d,a,b){w[o]=w[o]||{};w[o][s]=w[o][s]||[];w[o][s].push(i);})('5c7f360c',{"root":"exEzyuDm5RK1","version":"2022-05-04","animations":[{"elements":{"exEzyuDm5RK19":{"transform":{"data":{"a":1,"r":-45.277093,"t":{"x":-315.695694,"y":-271.258438}},"keys":{"o":[{"t":150,"v":{"x":316.4,"y":272.44,"type":"cusp","a":51.49071792730207}},{"t":1640,"v":{"x":372.29,"y":342.68,"type":"cusp","end":{"x":379.94,"y":352.53}}},{"t":2200,"v":{"x":389.52,"y":343.56,"type":"cusp","end":{"x":395.9,"y":337.56}}},{"t":2970,"v":{"x":432.75,"y":302.87,"type":"cusp","start":{"x":409.93,"y":323.05},"end":{"x":437.04,"y":299.08}}},{"t":3600,"v":{"x":450.75,"y":303.04,"type":"cusp","start":{"x":443.47,"y":293.3},"end":{"x":457.1,"y":311.56},"a":53.22433874864366}}]}}}},"s":"MIDA1ZE5kYTgxYzNkNGWQxYzBkM2M4Y2VjZDgNxVTk5OTI4ZjhmOGY4MYjgxYzNjOGQxVUJjNKGMyZDNjOGNlY2Q4MTBk5OTA4YjgxQWM4ZDNTRYzRkMUNjME9SZDNjGOGNlY2RkMjgxOTk5MCDhiODFjNWM4Y2JjYjJgxOTk5MDhiODFjMGNSiZDNjNGQxY2RjMGQzKQmM0ODE5OWM1YzBjYSmQyYzQ4YjgxZDJjZmUM0YzRjMzgxOTk5MEMD4YjgxYzVjZmQyODE5BOTkwOGY4ZmRj"}],"options":"MXDAxMDg4MmY4MDgxNmAVZN2Y4MTJmNDcyZjcW5N2M2ZTcxMmY4YQ|"},'__SVGATOR_PLAYER__',window,document)
]]></script>
</svg>
